<svg width="93" height="64" viewBox="0 0 93 64" fill="none" xmlns="http://www.w3.org/2000/svg">
<g clip-path="url(#clip0_1_59)">
<path fill-rule="evenodd" clip-rule="evenodd" d="M23.9148 20.897H28.1459V47.0193H23.9148V20.897ZM42.8627 38.7391C42.8627 42.7862 39.5515 43.1542 38.4477 43.1542C35.8723 43.1542 35.5043 40.7627 35.5043 39.475V29.3572H31.2733V39.291C31.2733 41.6825 32.0091 43.89 33.4808 45.1777C34.7685 46.4654 36.4241 47.0173 38.4477 47.0173C39.9194 47.0173 41.759 46.6494 42.8627 45.5456V47.0173H47.0938V29.3572H42.8627V38.7391ZM51.1407 22.9192H55.3718V29.3578H58.4991V33.4049H55.3718V47.0179H51.1407V33.4049H48.0134V29.3578H51.1407V22.9192ZM71.7442 41.6844C70.8244 42.4203 69.5367 42.9722 68.2489 42.9722C65.3056 42.9722 63.282 40.7646 63.282 37.8213C63.282 34.8779 65.3056 32.8544 68.2489 32.8544C69.5367 32.8544 70.8244 33.2223 71.7442 34.1421L72.2961 34.694L75.2394 31.9346L74.5036 31.3827C72.8479 29.911 70.6404 28.9912 68.2489 28.9912C63.0981 28.9912 59.2349 32.8544 59.2349 38.0052C59.2349 43.1561 63.0981 47.0193 68.2489 47.0193C70.6404 47.0193 72.8479 46.0995 74.5036 44.6278L75.2394 44.0759L72.2961 41.1326L71.7442 41.6844ZM85.5409 28.9912C87.5645 28.9912 88.8522 29.5431 90.1399 30.8308C91.4276 32.1185 91.9795 34.3261 91.9795 36.7175V46.8353H87.7484V36.5336C87.7484 36.4567 87.7491 36.3759 87.7498 36.2918V36.2905C87.7606 34.9674 87.7778 32.8544 85.3569 32.8544C84.2532 32.8544 81.4938 33.2223 81.4938 37.2694V47.0193H77.2627V20.897H81.4938V30.4629C82.5975 29.3591 84.0692 28.9912 85.5409 28.9912ZM68.0651 40.95C69.6907 40.95 71.0084 39.6322 71.0084 38.0066C71.0084 36.381 69.6907 35.0632 68.0651 35.0632C66.4395 35.0632 65.1217 36.381 65.1217 38.0066C65.1217 39.6322 66.4395 40.95 68.0651 40.95ZM11.9574 42.9731C14.3489 42.9731 16.5564 42.0533 18.0281 40.5816L18.58 40.0297L21.3394 42.7891L20.7875 43.341C18.58 45.7325 15.2687 47.0202 11.9574 47.0202C5.15088 47.0202 0 41.5014 0 34.327C0 27.1525 5.15088 21.6337 12.1414 21.8177C15.4526 21.8177 18.58 23.1054 20.9714 25.4969L21.5233 26.0488L18.7639 28.8082L18.212 28.2563C16.5564 26.6007 14.3489 25.6809 12.1414 25.6809C7.3584 25.6809 4.04712 29.3601 4.04712 34.327C4.04712 39.2939 7.3584 42.9731 11.9574 42.9731Z" fill="white"/>
</g>
<defs>
<clipPath id="clip0_1_59">
<rect width="92.7347" height="64" fill="white"/>
</clipPath>
</defs>
</svg>
