<svg width="71" height="64" viewBox="0 0 71 64" fill="none" xmlns="http://www.w3.org/2000/svg">
<path d="M7.00129 32.6603C7.00129 38.4103 11.6121 43.0875 17.2961 43.0875H26.9127C27.5157 43.0875 27.9853 42.5127 27.9853 42.0055V22.8977C27.9858 22.3173 28.2137 21.7608 28.619 21.3504C29.0242 20.94 29.5736 20.7091 30.1467 20.7086C30.5217 20.7081 30.8904 20.8067 31.2164 20.9947C31.5423 21.1827 31.8142 21.4536 32.0052 21.7805L44.0854 42.8763C44.1883 43.0442 44.3422 43.1737 44.524 43.2454C44.7058 43.3171 44.9056 43.3271 45.0935 43.2739C45.2814 43.2206 45.4471 43.1071 45.5658 42.9503C45.6845 42.7934 45.7497 42.6018 45.7517 42.4043V22.8977C45.7522 22.3173 45.9801 21.7608 46.3853 21.3504C46.7906 20.94 47.34 20.7091 47.9131 20.7086C48.2881 20.7081 48.6568 20.8067 48.9828 20.9947C49.3087 21.1827 49.5806 21.4536 49.7716 21.7805L61.8397 42.8749C61.9426 43.0427 62.0964 43.1722 62.2781 43.2439C62.4599 43.3156 62.6596 43.3257 62.8475 43.2725C63.0353 43.2194 63.2011 43.106 63.3198 42.9493C63.4386 42.7926 63.5039 42.6011 63.506 42.4035V17.1133H59.7159V32.1667L52.626 19.809C51.6237 18.0732 49.7226 16.9768 47.6988 16.9768C44.5295 16.9768 41.9531 19.5813 41.9531 22.7914V32.1675L34.8631 19.8097C33.858 18.0746 31.9569 16.979 29.9353 16.979C26.7659 16.979 24.1896 19.5834 24.1896 22.7936V38.1976C24.1917 38.758 23.7753 39.2466 23.1695 39.248H17.3245C15.5993 39.248 13.9448 38.5539 12.7249 37.3183C11.505 36.0828 10.8197 34.407 10.8197 32.6596C10.8197 30.9123 11.505 29.2365 12.7249 28.0009C13.9448 26.7654 15.5993 26.0712 17.3245 26.0712H22.2204V22.2331H17.2833C11.6192 22.2331 7.00129 26.9032 7.00129 32.6603ZM64.7672 17.1148V42.405C64.7667 42.9854 64.5387 43.5419 64.1335 43.9523C63.7283 44.3628 63.1789 44.5936 62.6058 44.5942C62.2308 44.5947 61.8622 44.4962 61.5363 44.3083C61.2103 44.1204 60.9384 43.8497 60.7473 43.5229L48.6777 22.4271C48.5749 22.2593 48.4211 22.1298 48.2393 22.0581C48.0576 21.9864 47.8578 21.9763 47.67 22.0295C47.4821 22.0826 47.3164 22.196 47.1977 22.3527C47.0789 22.5094 47.0136 22.7009 47.0115 22.8985V42.405C47.0109 42.9854 46.783 43.5419 46.3778 43.9523C45.9726 44.3628 45.4231 44.5936 44.8501 44.5942C44.4743 44.5947 44.105 44.4955 43.7789 44.3064C43.4528 44.1173 43.1813 43.845 42.9916 43.5165L30.9121 22.4271C30.7581 22.1613 30.4567 21.9961 30.1438 21.9961C29.9059 21.9968 29.6779 22.0929 29.5097 22.2633C29.3414 22.4337 29.2465 22.6646 29.2458 22.9056V42.0055C29.2458 43.2628 28.1548 44.3671 26.9106 44.3671H17.2954C14.2309 44.3641 11.2928 43.1297 9.12585 40.9349C6.95893 38.7401 5.74023 35.7642 5.73723 32.6603C5.74023 29.5564 6.95893 26.5805 9.12585 24.3858C11.2928 22.191 14.2309 20.9566 17.2954 20.9536H22.2325V17.1148H17.3081C8.83141 17.1148 1.95923 24.0746 1.95923 32.6611C1.95923 41.2475 8.82432 48.2074 17.3081 48.2074H27.0163C30.6936 48.2095 33.0586 46.0268 33.0458 42.0012V33.1338L40.1357 45.4915C41.1381 47.2274 43.0391 48.3237 45.0629 48.3237C48.2323 48.3237 50.8086 45.7193 50.8086 42.5099V33.1338L57.8986 45.4915C58.9016 47.2274 60.8027 48.3237 62.8257 48.3237C65.9951 48.3237 68.5715 45.7193 68.5715 42.5099V17.1148H64.7672Z" fill="white"/>
</svg>
