<svg width="35" height="31" viewBox="0 0 35 31" fill="none" xmlns="http://www.w3.org/2000/svg">
<path d="M17.4369 2.78749L18.4109 1.10394C19.0122 0.0517114 20.353 -0.303039 21.4052 0.298232C22.4575 0.899503 22.8122 2.24034 22.2109 3.29256L12.8251 19.5389H19.6135C21.8141 19.5389 23.0467 22.1244 22.0907 23.9162H2.18863C0.974059 23.9162 0 22.9421 0 21.7275C0 20.513 0.974059 19.5389 2.18863 19.5389H7.76842L14.9115 7.15873L12.6808 3.28655C12.0795 2.23432 12.4343 0.905516 13.4865 0.29222C14.5387 -0.309051 15.8675 0.0456983 16.4808 1.09792L17.4369 2.78749ZM8.99501 26.1709L6.89056 29.8206C6.28929 30.8729 4.94846 31.2276 3.89623 30.6263C2.84401 30.0251 2.48926 28.6842 3.09053 27.632L4.65384 24.9263C6.42157 24.3791 7.85861 24.8 8.99501 26.1709ZM27.1173 19.5509H32.8113C34.0259 19.5509 35 20.525 35 21.7395C35 22.9541 34.0259 23.9282 32.8113 23.9282H29.6487L31.7832 27.632C32.3844 28.6842 32.0297 30.013 30.9775 30.6263C29.9253 31.2276 28.5964 30.8729 27.9831 29.8206C24.3875 23.5855 21.6878 18.9196 19.8961 15.811C18.0622 12.6483 19.3729 9.47362 20.6657 8.39735C22.1027 10.8626 24.2493 14.5844 27.1173 19.5509Z" fill="white"/>
</svg>
