<svg width="49" height="49" viewBox="0 0 49 49" fill="none" xmlns="http://www.w3.org/2000/svg">
<path fill-rule="evenodd" clip-rule="evenodd" d="M37.192 0.252577C44.201 0.252577 48.7474 4.79897 48.7474 11.808V37.192C48.7474 44.201 44.201 48.7474 37.192 48.7474H11.808C4.79897 48.7474 0.252577 44.201 0.252577 37.192V11.808C0.252577 4.79897 4.79897 0.252577 11.808 0.252577H37.192Z" fill="white"/>
<path fill-rule="evenodd" clip-rule="evenodd" d="M37.192 0.252577C44.201 0.252577 48.7474 4.79897 48.7474 11.808V37.192C48.7474 44.201 44.201 48.7474 37.192 48.7474H11.808C4.79897 48.7474 0.252577 44.201 0.252577 37.192V11.808C0.252577 4.79897 4.79897 0.252577 11.808 0.252577H37.192Z" fill="white" stroke="#A4A4A4" stroke-opacity="0.5" stroke-width="0.5"/>
<path fill-rule="evenodd" clip-rule="evenodd" d="M19.8629 9.2195C15.9436 10.563 12.6041 13.5012 10.7439 17.2196C10.0951 18.5024 9.62784 19.8632 9.34233 21.276C8.63289 24.7777 9.12604 28.5134 10.7353 31.7031C11.7821 33.7833 13.2875 35.6381 15.1044 37.0856C16.8261 38.4551 18.8247 39.4779 20.953 40.0412C23.6351 40.7607 26.4902 40.7433 29.1896 40.1279C31.6293 39.5645 33.9394 38.3944 35.7822 36.6956C37.7289 34.9014 39.1218 32.5438 39.8572 30.0042C40.6617 27.2393 40.7656 24.2837 40.2641 21.4407C35.2199 21.4407 30.1672 21.4407 25.1232 21.4407C25.1232 23.5383 25.1232 25.6358 25.1232 27.7333C28.0475 27.7333 30.9718 27.7333 33.8962 27.7333C33.5587 29.7442 32.3648 31.5817 30.6777 32.7172C29.6135 33.4366 28.3936 33.8959 27.1304 34.1213C25.8673 34.338 24.5522 34.364 23.289 34.1126C21.9999 33.8526 20.78 33.3152 19.7072 32.5612C17.9941 31.3563 16.6877 29.5969 16.0215 27.612C15.338 25.5925 15.3294 23.3475 16.0215 21.3367C16.506 19.9152 17.302 18.6064 18.3575 17.5316C19.6553 16.1969 21.3424 15.2434 23.1679 14.8534C24.7252 14.524 26.3691 14.5847 27.8918 15.0441C29.1896 15.4341 30.3835 16.1535 31.3612 17.0896C32.3475 16.1015 33.3338 15.1134 34.3201 14.1253C34.8392 13.5966 35.3843 13.0852 35.8861 12.5391C34.3893 11.1523 32.6243 10.0342 30.7036 9.32348C27.2429 8.04071 23.3496 8.01469 19.8629 9.2195Z" fill="white"/>
<path fill-rule="evenodd" clip-rule="evenodd" d="M19.8629 9.21902C23.3409 8.01421 27.2429 8.04023 30.7036 9.31436C32.6243 10.0251 34.3806 11.1345 35.886 12.53C35.3842 13.0761 34.8392 13.5874 34.32 14.1162C33.3337 15.1043 32.3474 16.0924 31.3611 17.0804C30.3835 16.1444 29.1895 15.4336 27.8918 15.0349C26.3691 14.5756 24.7252 14.5062 23.1679 14.8442C21.351 15.2343 19.6639 16.1877 18.3575 17.5225C17.302 18.5886 16.506 19.9061 16.0215 21.3275C14.2652 19.9581 12.5089 18.5973 10.7439 17.2278C12.6041 13.5008 15.9436 10.5625 19.8629 9.21902Z" fill="#EA4335"/>
<path fill-rule="evenodd" clip-rule="evenodd" d="M9.351 21.2677C9.63651 19.8635 10.1037 18.494 10.7526 17.2113C12.5089 18.5807 14.2652 19.9415 16.0302 21.311C15.3381 23.3306 15.3381 25.5754 16.0302 27.5863C14.2739 28.9557 12.5176 30.3252 10.7613 31.686C9.13471 28.505 8.64156 24.7694 9.351 21.2677Z" fill="#FBBC05"/>
<path fill-rule="evenodd" clip-rule="evenodd" d="M25.1233 21.4321C30.1673 21.4321 35.2199 21.4321 40.2641 21.4321C40.7657 24.2664 40.6533 27.222 39.8573 29.9956C39.1219 32.5352 37.729 34.8927 35.7823 36.6869C34.0779 35.3608 32.3735 34.0347 30.6691 32.7085C32.3562 31.5731 33.5501 29.7356 33.8876 27.7247C30.9633 27.7247 28.039 27.7247 25.1147 27.7247C25.1233 25.6272 25.1233 23.5296 25.1233 21.4321Z" fill="#4285F4"/>
<path fill-rule="evenodd" clip-rule="evenodd" d="M10.7439 31.6943C12.5002 30.3335 14.2566 28.9641 16.0128 27.5946C16.6877 29.5795 17.9854 31.3389 19.6985 32.5437C20.7714 33.2978 21.9999 33.8352 23.2804 34.0952C24.5435 34.3553 25.8499 34.3206 27.1218 34.1039C28.3849 33.8785 29.6048 33.4192 30.669 32.6997C32.3734 34.0259 34.0778 35.352 35.7822 36.6781C33.9394 38.3856 31.6293 39.5471 29.1895 40.1105C26.4902 40.7258 23.6351 40.7432 20.953 40.0238C18.8247 39.4604 16.8261 38.4463 15.1044 37.0682C13.2962 35.6294 11.7908 33.7745 10.7439 31.6943Z" fill="#34A853"/>
</svg>
