<svg width="134" height="63" viewBox="0 0 134 63" fill="none" xmlns="http://www.w3.org/2000/svg">
<g clip-path="url(#clip0_1_40)">
<path fill-rule="evenodd" clip-rule="evenodd" d="M21.6563 17.9471C21.6563 15.6653 23.4124 13.8284 25.5938 13.8284C27.7751 13.8284 29.5313 15.6653 29.5313 17.9471V28.0848C29.5313 30.3666 27.7751 32.2034 25.5938 32.2034C23.4124 32.2034 21.6563 30.3666 21.6563 28.0848V17.9471ZM73.4171 45.0844L69.8125 45.0778L69.8111 45.0779C69.4318 45.0648 69.24 44.8892 69.1982 44.528C69.1563 44.1668 69.026 25.0849 69.2198 16.8083C69.2205 16.6614 69.3255 16.5349 69.4718 16.5047C70.2652 16.3027 72.7406 16.2747 73.6092 16.3897C73.8012 16.4142 73.9232 16.5177 73.9347 16.7968C74.0716 20.0062 74.1653 40.3419 73.9482 44.6132C73.9453 44.6789 73.9292 44.7433 73.9009 44.8026C73.8725 44.862 73.8325 44.915 73.7832 44.9585C73.6827 45.0473 73.551 45.0926 73.4171 45.0844ZM58.598 24.7546C53.5537 24.7546 50.781 27.3649 50.781 31.1045L50.8117 31.1015C50.8117 34.9806 53.9686 36.2511 57.8937 36.9782C60.3359 37.4344 61.881 38.0634 61.9025 39.142C61.9277 40.3667 60.7484 41.0921 58.7991 41.138L58.2931 41.1349C56.1116 41.0625 54.2476 39.9447 53.1051 39.247C52.7792 39.0467 52.1496 39.0973 51.9107 39.4176C51.4812 39.9103 50.9368 40.849 50.6126 41.6667C50.3304 42.3002 50.8583 42.8289 50.9051 42.8683C52.2913 44.0453 54.8767 45.2536 58.5215 45.3258C64.0335 45.4225 66.8729 42.269 66.8729 38.7806C66.8729 34.6734 63.803 33.5029 59.7408 32.8186C57.5575 32.452 55.7569 31.9925 55.7902 30.7186C55.7941 30.528 55.8355 30.3363 55.9123 30.1441C56.2931 29.1773 57.3687 28.7372 58.6583 28.7093C59.0389 28.7012 59.4147 28.7207 59.7739 28.7585C61.1628 28.9039 62.6876 29.6649 63.6672 30.1538L63.7827 30.2114C64.0499 30.3461 64.5727 30.3939 64.7781 30.0211L65.889 27.7376C66.0578 27.3481 65.9168 26.8955 65.5548 26.6656C64.1902 25.7199 61.6714 24.7546 58.598 24.7546ZM81.0844 39.3306C81.1579 37.2046 83.6951 36.4611 86.4628 36.425L86.4624 36.4267C87.204 36.4561 87.64 36.5317 88.228 36.7745C88.3466 36.8224 88.6154 37.0781 88.6187 37.2096C88.6322 37.8383 88.5988 39.3073 88.3649 39.7014C87.7351 40.7605 86.3053 41.5599 84.4313 41.737C82.4757 41.8453 81.0844 41.0163 81.0844 39.3306ZM85.2048 25.0473C81.0956 24.9537 78.5484 26.7249 77.2539 27.8626L77.2476 27.83C77.0805 27.9778 76.9501 28.2128 77.0421 28.495C77.1341 28.7771 78.3299 30.5408 78.8042 31.1445C78.9014 31.2676 79.2001 31.3479 79.3922 31.2381C79.4775 31.1892 79.5753 31.1316 79.6839 31.0677C80.6145 30.5205 82.3424 29.5045 83.8053 29.3914C84.2302 29.3612 84.6571 29.3724 85.0797 29.4242C87.1341 29.6753 88.1112 30.6028 88.3619 31.7552C88.4619 32.2084 88.4852 33.1622 88.4787 33.6627C88.4754 33.8139 88.2532 33.8761 88.1446 33.8336C86.4442 33.1686 84.1961 32.9093 82.2016 33.2015C79.0881 33.6579 76.2538 35.5965 76.2437 39.5248C76.2338 43.3613 79.5741 45.2983 82.925 45.2983C85.13 45.2983 87.2042 44.6416 88.4703 43.3282C88.5207 43.2954 88.716 43.2888 88.721 43.4923L88.7493 44.5068C88.756 44.7512 88.8113 44.9826 89.2872 45.0056L93.1724 44.9973C93.2307 45.0076 93.2905 45.0038 93.347 44.9863C93.4035 44.9688 93.455 44.938 93.4972 44.8966C93.5819 44.8129 93.6197 44.6934 93.5982 44.577C93.6447 42.873 93.8249 36.0312 93.7163 33.5785C93.451 27.6443 90.5998 25.1573 85.2048 25.0473ZM105.624 25.0125C99.3152 25.0552 95.4302 29.6778 95.4635 35.1575L95.4486 35.1378C95.4805 40.637 98.8777 45.3712 105.726 45.3221C108.996 45.304 111.468 43.9661 112.748 42.374C112.86 42.2361 113.09 41.8913 112.781 41.5398C112.309 40.9212 111.458 40.0018 110.865 39.4059C110.563 39.1728 110.289 39.0614 110.025 39.2878C109.198 40.0347 107.632 40.9473 106.016 40.9079C102.91 40.8373 100.762 38.856 100.738 35.2445C100.712 31.4834 102.973 29.438 106.007 29.438C107.678 29.438 109.379 30.154 110.272 30.74C110.317 30.7694 110.361 30.8 110.405 30.8302C110.671 31.0156 110.908 31.1809 111.128 30.9043C111.798 30.029 112.391 29.0975 112.901 28.1201C112.973 27.9247 113.023 27.7622 112.923 27.5685C112.419 26.7411 109.559 24.9881 105.624 25.0125ZM132.942 44.3535C131.888 44.5898 128.457 45.0562 128.136 45.0793L128.125 45.1081C127.965 45.1131 127.754 45.1031 127.573 44.8503L125.18 41.4509C124.687 40.7336 124.18 39.9839 123.713 39.2935L123.71 39.2897L123.708 39.2864L123.707 39.2849L123.707 39.2847C122.941 38.1525 122.284 37.1811 121.978 36.7758C121.878 36.6414 121.721 36.6347 121.62 36.7299L119.88 38.5227C119.796 38.5916 119.746 38.8509 119.746 38.8509L119.673 44.6952C119.673 44.6952 119.612 45.0348 119.121 45.0348C118.123 45.0529 115.986 45.0561 115.123 45.007C114.907 44.9917 114.738 44.8162 114.735 44.6032C114.615 41.5562 114.331 19.7807 114.531 16.8145C114.582 16.5708 114.779 16.3824 115.028 16.3384L118.961 16.3467C119.13 16.3546 119.431 16.54 119.437 16.7864L119.599 32.5537C119.601 32.9064 119.744 32.9609 119.995 32.7148L127.528 25.3685C127.872 25.0402 128.323 25.0122 128.697 25.0894C129.584 25.275 131.144 25.6281 132.11 25.9103C132.607 26.0566 132.961 26.3272 132.373 26.9511L125.849 33.3797C125.716 33.5109 125.709 33.675 125.833 33.8393L129.399 38.3323L133.152 43.8645C133.296 44.0795 133.202 44.2945 132.942 44.3535ZM11.1563 38.949C11.1563 36.6672 12.9124 34.8304 15.0938 34.8304C17.2751 34.8304 19.0313 36.6672 19.0313 38.949V49.0868C19.0313 51.3684 17.2751 53.2054 15.0938 53.2054C12.9124 53.2054 11.1563 51.3684 11.1563 49.0868V38.949ZM21.6563 38.7679C21.6563 40.9493 23.4932 42.7054 25.7749 42.7054H35.9129C38.1947 42.7054 40.0315 40.9493 40.0315 38.7679C40.0315 36.5865 38.1946 34.8304 35.9129 34.8304H25.7749C23.4931 34.8304 21.6563 36.5865 21.6563 38.7679ZM0.656265 28.2669C0.656265 30.4483 2.49311 32.2044 4.77489 32.2044H14.9126C17.1944 32.2044 19.0313 30.4483 19.0313 28.2669C19.0313 26.0855 17.1944 24.3294 14.9126 24.3294H4.77489C2.49311 24.3294 0.656265 26.0855 0.656265 28.2669ZM21.6563 49.2652C21.6563 51.4466 23.4124 53.2027 25.5938 53.2027C27.7751 53.2027 29.5313 51.4466 29.5313 49.2652C29.5313 47.0838 27.7751 45.3277 25.5938 45.3277H21.6563V49.2652ZM32.1563 32.2044H36.0938C38.2751 32.2044 40.0313 30.4483 40.0313 28.2669C40.0313 26.0855 38.2751 24.3294 36.0938 24.3294C33.9124 24.3294 32.1563 26.0855 32.1563 28.2669V32.2044ZM4.59377 34.8304H8.53127V38.7679C8.53127 40.9493 6.77514 42.7054 4.59377 42.7054C2.41239 42.7054 0.656265 40.9493 0.656265 38.7679C0.656265 36.5865 2.41239 34.8304 4.59377 34.8304ZM19.0313 21.7034V17.7659C19.0313 15.5846 17.2752 13.8284 15.0938 13.8284C12.9124 13.8284 11.1563 15.5846 11.1563 17.7659C11.1563 19.9473 12.9124 21.7034 15.0938 21.7034H19.0313Z" fill="white"/>
</g>
<defs>
<clipPath id="clip0_1_40">
<rect width="133.224" height="62.6939" fill="white" transform="scale(1.00488)"/>
</clipPath>
</defs>
</svg>
