<svg width="26" height="26" viewBox="0 0 26 26" fill="none" xmlns="http://www.w3.org/2000/svg">
<g clip-path="url(#clip0_1_534)">
<path fill-rule="evenodd" clip-rule="evenodd" d="M22.3624 22.0192C24.6148 19.6816 26 16.5025 26 13C26 5.8203 20.1797 0 13 0C5.8203 0 0 5.8203 0 13C0 16.5025 1.38516 19.6816 3.63756 22.0192C4.81846 17.9635 8.56313 14.9998 13 14.9998C17.4369 14.9998 21.1815 17.9635 22.3624 22.0192ZM13 13C15.3932 13 17.3333 11.0599 17.3333 8.66667C17.3333 6.27343 15.3932 4.33333 13 4.33333C10.6068 4.33333 8.66667 6.27343 8.66667 8.66667C8.66667 11.0599 10.6068 13 13 13Z" fill="#36485C"/>
<circle cx="13" cy="13" r="12.25" stroke="#36485C" stroke-width="1.5"/>
</g>
<defs>
<clipPath id="clip0_1_534">
<rect width="26" height="26" fill="white"/>
</clipPath>
</defs>
</svg>
