<svg width="179" height="63" viewBox="0 0 179 63" fill="none" xmlns="http://www.w3.org/2000/svg">
<path fill-rule="evenodd" clip-rule="evenodd" d="M26.4945 22.2771H42.862L29.6227 32.0017L34.6783 47.7304L21.4389 38.0058L8.18375 47.7304L13.2552 32.0017L0 22.2612L16.3675 22.2771L21.4389 6.53251L26.4945 22.2771ZM65.1542 22.2762H47.0331H47.0173V25.6934H54.1109V44.9031H58.029V25.6934H65.1542V22.2762ZM67.7294 28.5197H64.3801H64.3643V44.8871H67.9348V37.0946C67.9348 36.1845 68.0454 35.386 68.2824 34.6834C68.5194 33.9808 68.8353 33.406 69.2303 32.927C69.6253 32.4639 70.0834 32.0966 70.6206 31.8571C71.1578 31.6176 71.7265 31.4898 72.3269 31.4898C72.5796 31.4898 72.8324 31.5058 73.101 31.5377C73.3696 31.5697 73.6224 31.6016 73.8751 31.6495V28.1684C73.7823 28.1599 73.694 28.1468 73.6078 28.134C73.5326 28.1229 73.459 28.112 73.3854 28.1046C73.2274 28.0886 72.9272 28.0726 72.5164 28.0726C71.9793 28.0726 71.4421 28.1844 70.9208 28.392C70.3994 28.6155 69.9255 28.887 69.4989 29.2383C69.0723 29.5736 68.7089 29.9728 68.4088 30.388C68.1086 30.8032 67.9032 31.2343 67.7926 31.6814H67.7294V28.5197ZM86.7827 44.9031H90.2901V28.5357H86.7195V38.0368C86.7195 38.6755 86.6563 39.2663 86.5141 39.8092C86.372 40.3521 86.1508 40.8312 85.8348 41.2144C85.5346 41.6136 85.1239 41.917 84.6183 42.1566C84.1127 42.3961 83.4966 42.5078 82.7382 42.5078C81.7587 42.5078 80.9846 42.2045 80.4474 41.6136C79.8945 41.0228 79.6259 40.0008 79.6259 38.5637V28.5197H76.0554V38.915C76.0554 41.0707 76.5293 42.6835 77.4773 43.7534C78.4252 44.8232 79.9735 45.3502 82.1063 45.3502C83.0068 45.3502 83.8916 45.0947 84.7605 44.5997C85.6294 44.1047 86.2772 43.45 86.7195 42.6196H86.7827V44.9031ZM97.5575 41.8691C96.8781 41.438 96.4832 40.7034 96.3726 39.6495V39.6815H92.7705C92.8021 40.6555 92.9916 41.5019 93.355 42.2045C93.7184 42.9071 94.2239 43.4979 94.8559 43.9769C95.4878 44.44 96.2462 44.7913 97.1151 45.0308C97.984 45.2703 98.932 45.3821 99.9589 45.3821C100.796 45.3821 101.649 45.2863 102.502 45.0947C103.356 44.9031 104.146 44.5837 104.841 44.1685C105.536 43.7534 106.105 43.1945 106.547 42.5238C106.989 41.8372 107.211 41.0228 107.211 40.0488C107.211 39.2503 107.053 38.5637 106.752 38.0208C106.452 37.4779 106.057 37.0308 105.567 36.6635C105.078 36.2962 104.525 36.0088 103.893 35.8012C103.261 35.5936 102.629 35.402 101.981 35.2583C101.838 35.2274 101.696 35.1964 101.555 35.1656C101.039 35.0534 100.534 34.9434 100.038 34.8431C99.4059 34.7154 98.853 34.5557 98.3632 34.3801C97.8734 34.1884 97.4785 33.9649 97.1783 33.6934C96.8781 33.422 96.7201 33.0707 96.7201 32.6236C96.7201 32.2563 96.8307 31.9689 97.0361 31.7453C97.2573 31.5217 97.5101 31.3461 97.8103 31.2343C98.1262 31.1225 98.4422 31.0427 98.7898 30.9948C99.1374 30.9469 99.4375 30.9309 99.6903 30.9309C100.48 30.9309 101.191 31.0746 101.807 31.378C102.423 31.6655 102.803 32.2563 102.976 33.1186H106.705C106.594 32.2084 106.342 31.4259 105.931 30.7872C105.52 30.1485 105.014 29.6215 104.398 29.2223C103.782 28.8072 103.087 28.5197 102.329 28.3441C101.57 28.1684 100.765 28.0726 99.9273 28.0726C99.2005 28.0726 98.4264 28.1525 97.6207 28.2962C96.8149 28.4559 96.0882 28.7114 95.4247 29.0786C94.7769 29.4459 94.2239 29.9249 93.7974 30.5317C93.3708 31.1385 93.1496 31.8731 93.1496 32.7673C93.1496 33.5976 93.2918 34.2842 93.592 34.8431C93.8764 35.402 94.2713 35.8651 94.7611 36.2164C95.2509 36.5837 95.8038 36.8711 96.42 37.0787C97.0361 37.2863 97.6839 37.4779 98.3474 37.6216C98.4644 37.6476 98.581 37.6735 98.6971 37.6994C99.2235 37.8167 99.7413 37.9321 100.259 38.0368C100.891 38.1645 101.444 38.3242 101.934 38.4998C102.423 38.6915 102.818 38.915 103.134 39.2184C103.45 39.5058 103.624 39.8891 103.64 40.3521C103.656 40.8152 103.545 41.1825 103.308 41.4699C103.055 41.7573 102.755 41.9809 102.376 42.1246C102.013 42.2683 101.602 42.3801 101.175 42.428C100.749 42.4759 100.37 42.5078 100.038 42.5078C99.0742 42.5078 98.2526 42.2843 97.5575 41.8691ZM110.86 28.5197H108.19V31.2503H110.892V40.911C110.907 41.5817 110.986 42.1885 111.097 42.7154C111.223 43.2424 111.429 43.6735 111.761 44.0248C112.077 44.3761 112.535 44.6476 113.103 44.8232C113.672 44.9989 114.431 45.0947 115.378 45.0947C115.773 45.0947 116.153 45.0787 116.532 45.0308C116.73 45.0047 116.938 44.9833 117.15 44.9614C117.327 44.9433 117.506 44.9248 117.685 44.9031V42.1086C117.432 42.1725 117.18 42.2045 116.927 42.2204C116.674 42.2364 116.421 42.2364 116.168 42.2364C115.758 42.2364 115.457 42.1885 115.22 42.0927C114.984 41.9969 114.81 41.8532 114.699 41.6615C114.589 41.4699 114.51 41.2304 114.478 40.9589C114.446 40.6715 114.431 40.3521 114.431 39.9689V31.2184H117.653V28.5197H114.431V23.6015H110.86V28.5197ZM123.562 28.5197H120.181V50.955H123.752V42.7793H123.815C124.099 43.2104 124.431 43.5937 124.842 43.929C125.237 44.2643 125.695 44.5358 126.169 44.7434C126.643 44.951 127.149 45.1107 127.67 45.2065C128.191 45.3023 128.713 45.3502 129.234 45.3502C130.435 45.3502 131.462 45.1107 132.346 44.6316C133.231 44.1526 133.958 43.5298 134.527 42.7314C135.095 41.933 135.522 41.0228 135.806 39.9849C136.091 38.9629 136.233 37.893 136.233 36.7912C136.233 35.5936 136.075 34.4599 135.759 33.406C135.443 32.3521 134.985 31.4259 134.353 30.6275C133.721 29.8291 132.931 29.2064 131.983 28.7593C131.035 28.2962 129.929 28.0726 128.649 28.0726C127.591 28.0726 126.627 28.2802 125.727 28.6954C124.826 29.1106 124.131 29.7812 123.625 30.7393H123.562V28.5197ZM132.378 34.5717C132.568 35.2743 132.662 35.9928 132.662 36.7274C132.662 37.4459 132.583 38.1485 132.441 38.8352C132.283 39.5218 132.015 40.1286 131.651 40.6715C131.288 41.1985 130.83 41.6456 130.261 41.9809C129.692 42.3162 129.013 42.4919 128.191 42.4919C127.465 42.4919 126.817 42.3482 126.264 42.0448C125.711 41.7573 125.237 41.3581 124.842 40.8472C124.431 40.3362 124.147 39.7294 123.941 39.0268C123.736 38.3242 123.641 37.5577 123.641 36.7274C123.641 34.9709 124.02 33.5657 124.779 32.5118C125.537 31.4579 126.675 30.9309 128.175 30.9309C128.902 30.9309 129.55 31.1066 130.119 31.4259C130.672 31.7453 131.146 32.1764 131.525 32.7194C131.904 33.2623 132.188 33.8691 132.378 34.5717ZM142.537 22.2762H138.966V25.6934H142.537V22.2762ZM142.537 28.5197H138.966V44.9031H142.537V28.5197ZM149.298 22.2762H145.728V44.9031H149.298V22.2762ZM156.787 44.6955C157.798 45.1266 158.951 45.3502 160.247 45.3502C161.542 45.3502 162.696 45.1266 163.707 44.6955C164.718 44.2643 165.587 43.6735 166.282 42.9071C166.977 42.1406 167.514 41.2304 167.878 40.1765C168.241 39.1226 168.431 37.9569 168.431 36.6954C168.431 35.4499 168.241 34.3002 167.878 33.2463C167.514 32.1924 166.977 31.2822 166.282 30.5158C165.571 29.7653 164.718 29.1585 163.707 28.7273C162.696 28.2962 161.542 28.0726 160.247 28.0726C158.951 28.0726 157.798 28.2962 156.787 28.7273C155.776 29.1585 154.907 29.7493 154.212 30.5158C153.517 31.2822 152.98 32.1924 152.616 33.2463C152.253 34.3002 152.063 35.4499 152.063 36.6954C152.063 37.9569 152.253 39.1226 152.616 40.1765C152.98 41.2304 153.517 42.1406 154.212 42.9071C154.923 43.6576 155.776 44.2643 156.787 44.6955ZM162.317 41.9809C161.732 42.3162 161.037 42.4919 160.247 42.4919C159.457 42.4919 158.762 42.3322 158.177 41.9809C157.593 41.6456 157.119 41.1985 156.74 40.6555C156.36 40.1126 156.076 39.4899 155.902 38.8032C155.728 38.1166 155.634 37.414 155.634 36.6954C155.634 35.9928 155.728 35.3062 155.902 34.6036C156.092 33.901 156.36 33.2942 156.74 32.7513C157.119 32.2243 157.593 31.7772 158.177 31.4419C158.762 31.1066 159.457 30.9309 160.247 30.9309C161.037 30.9309 161.732 31.1066 162.317 31.4419C162.901 31.7772 163.375 32.2084 163.754 32.7513C164.133 33.2942 164.418 33.901 164.592 34.6036C164.765 35.3062 164.86 35.9928 164.86 36.6954C164.86 37.414 164.765 38.1166 164.592 38.8032C164.402 39.4899 164.133 40.1126 163.754 40.6555C163.375 41.1985 162.901 41.6456 162.317 41.9809ZM172.175 28.5197H169.505V31.2503H172.207V40.911C172.222 41.5817 172.301 42.1885 172.412 42.7154C172.538 43.2424 172.744 43.6735 173.076 44.0248C173.392 44.3761 173.85 44.6476 174.418 44.8232C174.987 44.9989 175.746 45.0947 176.693 45.0947C177.088 45.0947 177.468 45.0787 177.847 45.0308C178.045 45.0047 178.253 44.9833 178.465 44.9614C178.642 44.9433 178.821 44.9248 179 44.9031V42.1086C178.747 42.1725 178.495 42.2045 178.242 42.2204C177.989 42.2364 177.736 42.2364 177.483 42.2364C177.073 42.2364 176.772 42.1885 176.535 42.0927C176.298 41.9969 176.125 41.8532 176.014 41.6615C175.904 41.4699 175.825 41.2304 175.793 40.9589C175.761 40.6715 175.746 40.3521 175.746 39.9689V31.2184H178.968V28.5197H175.746V23.6015H172.175V28.5197Z" fill="white"/>
</svg>
