<svg width="104" height="63" viewBox="0 0 104 63" fill="none" xmlns="http://www.w3.org/2000/svg">
<path d="M25.4813 30.4332H13.3836V34.0077H21.9568C21.5281 39.0598 17.3368 41.2045 13.3836 41.2045C8.33501 41.2045 3.90555 37.201 3.90555 31.6247C3.90555 26.1914 8.09687 21.9973 13.3836 21.9973C17.4321 21.9973 19.8611 24.5709 19.8611 24.5709L22.3855 21.9496C22.3855 21.9496 19.1467 18.3751 13.2884 18.3751C5.81069 18.4227 0 24.7616 0 31.5771C0 38.2972 5.42967 44.8267 13.4789 44.8267C20.5279 44.8267 25.7195 39.9653 25.7195 32.8162C25.7195 31.2911 25.4813 30.4332 25.4813 30.4332ZM35.3881 27.8595C30.4347 27.8595 26.8626 31.72 26.8626 36.2955C26.8626 40.8709 30.2918 44.8267 35.4357 44.8267C40.0557 44.8267 43.866 41.2522 43.866 36.3908C43.9136 30.7192 39.4842 27.8595 35.3881 27.8595ZM35.4357 31.1958C37.8648 31.1958 40.1986 33.1499 40.1986 36.3431C40.1986 39.4411 37.9124 41.4905 35.4357 41.4905C32.7209 41.4905 30.5776 39.3457 30.5776 36.3431C30.5776 33.3882 32.7209 31.1958 35.4357 31.1958ZM53.9156 27.8595C48.9622 27.8595 45.3901 31.72 45.3901 36.2955C45.3901 40.8709 48.8194 44.8267 53.9633 44.8267C58.5832 44.8267 62.3935 41.2522 62.3935 36.3908C62.4412 30.7192 58.0117 27.8595 53.9156 27.8595ZM53.9633 31.1958C56.3923 31.1958 58.7261 33.1499 58.7261 36.3431C58.7261 39.4411 56.4399 41.4905 53.9633 41.4905C51.2484 41.4905 49.1051 39.3457 49.1051 36.3431C49.1528 33.3882 51.2484 31.1958 53.9633 31.1958ZM72.1098 27.8595C67.5374 27.8595 63.9653 31.863 63.9653 36.3431C63.9653 41.4428 68.109 44.8267 72.0145 44.8267C74.4436 44.8267 75.7295 43.8735 76.6821 42.7773V44.4454C76.6821 47.3527 74.9199 49.1162 72.205 49.1162C69.6331 49.1162 68.2995 47.2097 67.8708 46.1135L64.6321 47.4957C65.7752 49.9264 68.109 52.5001 72.2527 52.5001C76.7774 52.5001 80.2543 49.6404 80.2543 43.6352V28.3838H76.6821V29.8136C75.5867 28.6221 74.1102 27.8595 72.1098 27.8595ZM72.4432 31.1958C74.6817 31.1958 76.9679 33.1022 76.9679 36.3431C76.9679 39.6794 74.6817 41.4905 72.3955 41.4905C69.9665 41.4905 67.7279 39.5364 67.7279 36.3908C67.6803 33.1022 70.0617 31.1958 72.4432 31.1958ZM96.0194 27.8119C91.7328 27.8119 88.113 31.2434 88.113 36.2955C88.113 41.6334 92.1138 44.8267 96.448 44.8267C100.02 44.8267 102.259 42.8726 103.545 41.1092L100.592 39.1551C99.8296 40.3466 98.5437 41.4905 96.448 41.4905C94.0666 41.4905 92.9711 40.2036 92.3043 38.9168L103.688 34.1984L103.116 32.8162C101.973 30.0996 99.401 27.8119 96.0194 27.8119ZM96.1622 31.1004C97.734 31.1004 98.8294 31.9107 99.3057 32.9116L91.7328 36.1048C91.3994 33.6265 93.7332 31.1004 96.1622 31.1004ZM82.731 44.3024H86.446V19.3283H82.731V44.3024Z" fill="white"/>
</svg>
